<mxfile host="app.diagrams.net" agent="Mozilla/5.0 (Windows NT 10.0; Win64; x64) AppleWebKit/537.36 (KHTML, like Gecko) Chrome/134.0.0.0 Safari/537.36" version="26.1.0" pages="2">
  <diagram id="-pp_4rtSkkgMuaA1rZWp" name="component">
    <mxGraphModel dx="1900" dy="557" grid="1" gridSize="10" guides="1" tooltips="1" connect="1" arrows="1" fold="1" page="1" pageScale="1" pageWidth="850" pageHeight="1100" math="0" shadow="0">
      <root>
        <mxCell id="0" />
        <mxCell id="1" parent="0" />
        <mxCell id="qoWuTXzaB_ndGhobqMYi-1" value="Start" style="strokeWidth=2;html=1;shape=mxgraph.flowchart.terminator;whiteSpace=wrap;strokeColor=default;" parent="1" vertex="1">
          <mxGeometry x="-170" y="120" width="105" height="50" as="geometry" />
        </mxCell>
        <mxCell id="qoWuTXzaB_ndGhobqMYi-2" value="Inisialisasi" style="rounded=1;whiteSpace=wrap;html=1;absoluteArcSize=1;arcSize=14;strokeWidth=2;" parent="1" vertex="1">
          <mxGeometry x="-320" y="115" width="120" height="60" as="geometry" />
        </mxCell>
        <mxCell id="qoWuTXzaB_ndGhobqMYi-3" value="Kondisi" style="strokeWidth=2;html=1;shape=mxgraph.flowchart.decision;whiteSpace=wrap;" parent="1" vertex="1">
          <mxGeometry x="-460" y="95" width="112" height="100" as="geometry" />
        </mxCell>
        <mxCell id="qoWuTXzaB_ndGhobqMYi-4" value="Input Output" style="shape=parallelogram;html=1;strokeWidth=2;perimeter=parallelogramPerimeter;whiteSpace=wrap;rounded=1;arcSize=12;size=0.23;" parent="1" vertex="1">
          <mxGeometry x="-630" y="120" width="140" height="60" as="geometry" />
        </mxCell>
        <mxCell id="qoWuTXzaB_ndGhobqMYi-5" value="No" style="text;html=1;align=center;verticalAlign=middle;whiteSpace=wrap;rounded=0;" parent="1" vertex="1">
          <mxGeometry x="-820" y="130" width="30" height="30" as="geometry" />
        </mxCell>
        <mxCell id="qoWuTXzaB_ndGhobqMYi-6" value="Yes" style="text;html=1;align=center;verticalAlign=middle;whiteSpace=wrap;rounded=0;" parent="1" vertex="1">
          <mxGeometry x="-780" y="130" width="30" height="30" as="geometry" />
        </mxCell>
      </root>
    </mxGraphModel>
  </diagram>
  <diagram id="1nvReu2-7PWtqVjhqMmw" name="crud">
    <mxGraphModel dx="4350" dy="1857" grid="1" gridSize="10" guides="1" tooltips="1" connect="1" arrows="1" fold="1" page="1" pageScale="1" pageWidth="850" pageHeight="1100" math="0" shadow="0">
      <root>
        <mxCell id="0" />
        <mxCell id="1" parent="0" />
        <mxCell id="UuXWq8jdKjsKphEEJ5_x-1" style="edgeStyle=orthogonalEdgeStyle;rounded=0;orthogonalLoop=1;jettySize=auto;html=1;entryX=0.5;entryY=0;entryDx=0;entryDy=0;" edge="1" parent="1" source="UuXWq8jdKjsKphEEJ5_x-2" target="UuXWq8jdKjsKphEEJ5_x-4">
          <mxGeometry relative="1" as="geometry" />
        </mxCell>
        <mxCell id="UuXWq8jdKjsKphEEJ5_x-2" value="Start" style="strokeWidth=2;html=1;shape=mxgraph.flowchart.terminator;whiteSpace=wrap;strokeColor=default;" vertex="1" parent="1">
          <mxGeometry x="368" y="50" width="105" height="50" as="geometry" />
        </mxCell>
        <mxCell id="UuXWq8jdKjsKphEEJ5_x-3" style="edgeStyle=orthogonalEdgeStyle;rounded=0;orthogonalLoop=1;jettySize=auto;html=1;" edge="1" parent="1" source="UuXWq8jdKjsKphEEJ5_x-4" target="UuXWq8jdKjsKphEEJ5_x-5">
          <mxGeometry relative="1" as="geometry" />
        </mxCell>
        <mxCell id="UuXWq8jdKjsKphEEJ5_x-4" value="Inisialisasi array list dan scanner" style="rounded=1;whiteSpace=wrap;html=1;absoluteArcSize=1;arcSize=14;strokeWidth=2;" vertex="1" parent="1">
          <mxGeometry x="360.5" y="135" width="120" height="60" as="geometry" />
        </mxCell>
        <mxCell id="UuXWq8jdKjsKphEEJ5_x-5" value="boolean next = true" style="rounded=1;whiteSpace=wrap;html=1;absoluteArcSize=1;arcSize=14;strokeWidth=2;" vertex="1" parent="1">
          <mxGeometry x="360.5" y="230" width="120" height="60" as="geometry" />
        </mxCell>
        <mxCell id="UuXWq8jdKjsKphEEJ5_x-6" style="edgeStyle=orthogonalEdgeStyle;rounded=0;orthogonalLoop=1;jettySize=auto;html=1;entryX=0.5;entryY=0;entryDx=0;entryDy=0;" edge="1" parent="1" source="UuXWq8jdKjsKphEEJ5_x-7" target="UuXWq8jdKjsKphEEJ5_x-9">
          <mxGeometry relative="1" as="geometry" />
        </mxCell>
        <mxCell id="UuXWq8jdKjsKphEEJ5_x-7" value="next == true?" style="strokeWidth=2;html=1;shape=mxgraph.flowchart.decision;whiteSpace=wrap;" vertex="1" parent="1">
          <mxGeometry x="364" y="330" width="112" height="100" as="geometry" />
        </mxCell>
        <mxCell id="UuXWq8jdKjsKphEEJ5_x-8" style="edgeStyle=orthogonalEdgeStyle;rounded=0;orthogonalLoop=1;jettySize=auto;html=1;" edge="1" parent="1" source="UuXWq8jdKjsKphEEJ5_x-9" target="UuXWq8jdKjsKphEEJ5_x-13">
          <mxGeometry relative="1" as="geometry" />
        </mxCell>
        <mxCell id="UuXWq8jdKjsKphEEJ5_x-9" value="Output &quot;Masukkan perintah: &quot;" style="shape=parallelogram;html=1;strokeWidth=2;perimeter=parallelogramPerimeter;whiteSpace=wrap;rounded=1;arcSize=12;size=0.23;" vertex="1" parent="1">
          <mxGeometry x="350" y="470" width="140" height="60" as="geometry" />
        </mxCell>
        <mxCell id="UuXWq8jdKjsKphEEJ5_x-10" style="edgeStyle=orthogonalEdgeStyle;rounded=0;orthogonalLoop=1;jettySize=auto;html=1;entryX=0;entryY=0.5;entryDx=0;entryDy=0;" edge="1" parent="1" source="UuXWq8jdKjsKphEEJ5_x-12" target="UuXWq8jdKjsKphEEJ5_x-15">
          <mxGeometry relative="1" as="geometry" />
        </mxCell>
        <mxCell id="UuXWq8jdKjsKphEEJ5_x-11" value="" style="edgeStyle=orthogonalEdgeStyle;rounded=0;orthogonalLoop=1;jettySize=auto;html=1;" edge="1" parent="1" source="UuXWq8jdKjsKphEEJ5_x-12" target="UuXWq8jdKjsKphEEJ5_x-27">
          <mxGeometry relative="1" as="geometry" />
        </mxCell>
        <mxCell id="UuXWq8jdKjsKphEEJ5_x-12" value="perintah ==&lt;div&gt;tambah?&lt;/div&gt;" style="strokeWidth=2;html=1;shape=mxgraph.flowchart.decision;whiteSpace=wrap;" vertex="1" parent="1">
          <mxGeometry x="364.5" y="650" width="112" height="100" as="geometry" />
        </mxCell>
        <mxCell id="UuXWq8jdKjsKphEEJ5_x-13" value="Input perintah" style="shape=parallelogram;html=1;strokeWidth=2;perimeter=parallelogramPerimeter;whiteSpace=wrap;rounded=1;arcSize=12;size=0.23;" vertex="1" parent="1">
          <mxGeometry x="350" y="560" width="140" height="60" as="geometry" />
        </mxCell>
        <mxCell id="UuXWq8jdKjsKphEEJ5_x-14" value="" style="edgeStyle=orthogonalEdgeStyle;rounded=0;orthogonalLoop=1;jettySize=auto;html=1;" edge="1" parent="1" source="UuXWq8jdKjsKphEEJ5_x-15" target="UuXWq8jdKjsKphEEJ5_x-17">
          <mxGeometry relative="1" as="geometry" />
        </mxCell>
        <mxCell id="UuXWq8jdKjsKphEEJ5_x-15" value="Output &quot;Masukkan&amp;nbsp;&lt;div&gt;ID user: &quot;&lt;/div&gt;" style="shape=parallelogram;html=1;strokeWidth=2;perimeter=parallelogramPerimeter;whiteSpace=wrap;rounded=1;arcSize=12;size=0.23;" vertex="1" parent="1">
          <mxGeometry x="530" y="670" width="140" height="60" as="geometry" />
        </mxCell>
        <mxCell id="UuXWq8jdKjsKphEEJ5_x-16" value="" style="edgeStyle=orthogonalEdgeStyle;rounded=0;orthogonalLoop=1;jettySize=auto;html=1;" edge="1" parent="1" source="UuXWq8jdKjsKphEEJ5_x-17" target="UuXWq8jdKjsKphEEJ5_x-19">
          <mxGeometry relative="1" as="geometry" />
        </mxCell>
        <mxCell id="UuXWq8jdKjsKphEEJ5_x-17" value="Input id user" style="shape=parallelogram;html=1;strokeWidth=2;perimeter=parallelogramPerimeter;whiteSpace=wrap;rounded=1;arcSize=12;size=0.23;" vertex="1" parent="1">
          <mxGeometry x="530" y="770" width="140" height="60" as="geometry" />
        </mxCell>
        <mxCell id="UuXWq8jdKjsKphEEJ5_x-18" value="" style="edgeStyle=orthogonalEdgeStyle;rounded=0;orthogonalLoop=1;jettySize=auto;html=1;" edge="1" parent="1" source="UuXWq8jdKjsKphEEJ5_x-19" target="UuXWq8jdKjsKphEEJ5_x-21">
          <mxGeometry relative="1" as="geometry" />
        </mxCell>
        <mxCell id="UuXWq8jdKjsKphEEJ5_x-19" value="Output &quot;Masukkan&lt;div&gt;nama user: &quot;&lt;/div&gt;" style="shape=parallelogram;html=1;strokeWidth=2;perimeter=parallelogramPerimeter;whiteSpace=wrap;rounded=1;arcSize=12;size=0.23;" vertex="1" parent="1">
          <mxGeometry x="530" y="870" width="140" height="60" as="geometry" />
        </mxCell>
        <mxCell id="UuXWq8jdKjsKphEEJ5_x-20" value="" style="edgeStyle=orthogonalEdgeStyle;rounded=0;orthogonalLoop=1;jettySize=auto;html=1;" edge="1" parent="1" source="UuXWq8jdKjsKphEEJ5_x-21" target="UuXWq8jdKjsKphEEJ5_x-23">
          <mxGeometry relative="1" as="geometry" />
        </mxCell>
        <mxCell id="UuXWq8jdKjsKphEEJ5_x-21" value="Input nama user" style="shape=parallelogram;html=1;strokeWidth=2;perimeter=parallelogramPerimeter;whiteSpace=wrap;rounded=1;arcSize=12;size=0.23;" vertex="1" parent="1">
          <mxGeometry x="530" y="970" width="140" height="60" as="geometry" />
        </mxCell>
        <mxCell id="UuXWq8jdKjsKphEEJ5_x-22" value="" style="edgeStyle=orthogonalEdgeStyle;rounded=0;orthogonalLoop=1;jettySize=auto;html=1;" edge="1" parent="1" source="UuXWq8jdKjsKphEEJ5_x-23" target="UuXWq8jdKjsKphEEJ5_x-24">
          <mxGeometry relative="1" as="geometry" />
        </mxCell>
        <mxCell id="UuXWq8jdKjsKphEEJ5_x-23" value="User ditambah dalam&amp;nbsp;&lt;div&gt;array list&lt;/div&gt;" style="rounded=1;whiteSpace=wrap;html=1;absoluteArcSize=1;arcSize=14;strokeWidth=2;" vertex="1" parent="1">
          <mxGeometry x="540" y="1070" width="120" height="60" as="geometry" />
        </mxCell>
        <mxCell id="UuXWq8jdKjsKphEEJ5_x-24" value="Output &quot;User berhasil&lt;div&gt;ditambahkan&quot;&lt;/div&gt;" style="shape=parallelogram;html=1;strokeWidth=2;perimeter=parallelogramPerimeter;whiteSpace=wrap;rounded=1;arcSize=12;size=0.23;" vertex="1" parent="1">
          <mxGeometry x="530" y="1170" width="140" height="60" as="geometry" />
        </mxCell>
        <mxCell id="UuXWq8jdKjsKphEEJ5_x-25" style="edgeStyle=orthogonalEdgeStyle;rounded=0;orthogonalLoop=1;jettySize=auto;html=1;entryX=1;entryY=0.5;entryDx=0;entryDy=0;" edge="1" parent="1" source="UuXWq8jdKjsKphEEJ5_x-27" target="UuXWq8jdKjsKphEEJ5_x-29">
          <mxGeometry relative="1" as="geometry">
            <Array as="points">
              <mxPoint x="310" y="830" />
              <mxPoint x="310" y="590" />
            </Array>
          </mxGeometry>
        </mxCell>
        <mxCell id="UuXWq8jdKjsKphEEJ5_x-26" style="edgeStyle=orthogonalEdgeStyle;rounded=0;orthogonalLoop=1;jettySize=auto;html=1;" edge="1" parent="1" source="UuXWq8jdKjsKphEEJ5_x-27" target="UuXWq8jdKjsKphEEJ5_x-54">
          <mxGeometry relative="1" as="geometry" />
        </mxCell>
        <mxCell id="UuXWq8jdKjsKphEEJ5_x-27" value="perintah ==&lt;div&gt;edit?&lt;/div&gt;" style="strokeWidth=2;html=1;shape=mxgraph.flowchart.decision;whiteSpace=wrap;" vertex="1" parent="1">
          <mxGeometry x="364.5" y="780" width="112" height="100" as="geometry" />
        </mxCell>
        <mxCell id="UuXWq8jdKjsKphEEJ5_x-28" value="" style="edgeStyle=orthogonalEdgeStyle;rounded=0;orthogonalLoop=1;jettySize=auto;html=1;" edge="1" parent="1" source="UuXWq8jdKjsKphEEJ5_x-29" target="UuXWq8jdKjsKphEEJ5_x-31">
          <mxGeometry relative="1" as="geometry" />
        </mxCell>
        <mxCell id="UuXWq8jdKjsKphEEJ5_x-29" value="Output &quot;Masukkan&amp;nbsp;&lt;div&gt;ID user: &quot;&lt;/div&gt;" style="shape=parallelogram;html=1;strokeWidth=2;perimeter=parallelogramPerimeter;whiteSpace=wrap;rounded=1;arcSize=12;size=0.23;" vertex="1" parent="1">
          <mxGeometry x="160" y="560" width="140" height="60" as="geometry" />
        </mxCell>
        <mxCell id="UuXWq8jdKjsKphEEJ5_x-30" style="edgeStyle=orthogonalEdgeStyle;rounded=0;orthogonalLoop=1;jettySize=auto;html=1;entryX=0.5;entryY=0;entryDx=0;entryDy=0;" edge="1" parent="1" source="UuXWq8jdKjsKphEEJ5_x-31" target="UuXWq8jdKjsKphEEJ5_x-32">
          <mxGeometry relative="1" as="geometry" />
        </mxCell>
        <mxCell id="UuXWq8jdKjsKphEEJ5_x-31" value="Input id user" style="shape=parallelogram;html=1;strokeWidth=2;perimeter=parallelogramPerimeter;whiteSpace=wrap;rounded=1;arcSize=12;size=0.23;" vertex="1" parent="1">
          <mxGeometry x="160" y="660" width="140" height="60" as="geometry" />
        </mxCell>
        <mxCell id="UuXWq8jdKjsKphEEJ5_x-32" value="boolean&amp;nbsp;&lt;div&gt;found = false&lt;/div&gt;" style="rounded=1;whiteSpace=wrap;html=1;absoluteArcSize=1;arcSize=14;strokeWidth=2;" vertex="1" parent="1">
          <mxGeometry x="170" y="760" width="120" height="60" as="geometry" />
        </mxCell>
        <mxCell id="UuXWq8jdKjsKphEEJ5_x-33" value="" style="edgeStyle=orthogonalEdgeStyle;rounded=0;orthogonalLoop=1;jettySize=auto;html=1;" edge="1" parent="1" source="UuXWq8jdKjsKphEEJ5_x-34" target="UuXWq8jdKjsKphEEJ5_x-46">
          <mxGeometry relative="1" as="geometry" />
        </mxCell>
        <mxCell id="UuXWq8jdKjsKphEEJ5_x-34" value="User ada di&lt;div&gt;daftar user?&lt;/div&gt;" style="strokeWidth=2;html=1;shape=mxgraph.flowchart.decision;whiteSpace=wrap;" vertex="1" parent="1">
          <mxGeometry x="10" y="740" width="112" height="100" as="geometry" />
        </mxCell>
        <mxCell id="UuXWq8jdKjsKphEEJ5_x-35" style="edgeStyle=orthogonalEdgeStyle;rounded=0;orthogonalLoop=1;jettySize=auto;html=1;entryX=0.5;entryY=0;entryDx=0;entryDy=0;" edge="1" parent="1" source="UuXWq8jdKjsKphEEJ5_x-36" target="UuXWq8jdKjsKphEEJ5_x-38">
          <mxGeometry relative="1" as="geometry" />
        </mxCell>
        <mxCell id="UuXWq8jdKjsKphEEJ5_x-36" value="user.id ==&amp;nbsp;&lt;div&gt;id user?&lt;/div&gt;" style="strokeWidth=2;html=1;shape=mxgraph.flowchart.decision;whiteSpace=wrap;" vertex="1" parent="1">
          <mxGeometry x="10" y="870" width="112" height="100" as="geometry" />
        </mxCell>
        <mxCell id="UuXWq8jdKjsKphEEJ5_x-37" style="edgeStyle=orthogonalEdgeStyle;rounded=0;orthogonalLoop=1;jettySize=auto;html=1;" edge="1" parent="1" source="UuXWq8jdKjsKphEEJ5_x-38" target="UuXWq8jdKjsKphEEJ5_x-39">
          <mxGeometry relative="1" as="geometry" />
        </mxCell>
        <mxCell id="UuXWq8jdKjsKphEEJ5_x-38" value="Output &quot;Masukkan&amp;nbsp;&lt;div&gt;nama baru: &quot;&lt;/div&gt;" style="shape=parallelogram;html=1;strokeWidth=2;perimeter=parallelogramPerimeter;whiteSpace=wrap;rounded=1;arcSize=12;size=0.23;" vertex="1" parent="1">
          <mxGeometry x="-4" y="1000" width="140" height="60" as="geometry" />
        </mxCell>
        <mxCell id="UuXWq8jdKjsKphEEJ5_x-39" value="Input nama baru&lt;div&gt;user&lt;/div&gt;" style="shape=parallelogram;html=1;strokeWidth=2;perimeter=parallelogramPerimeter;whiteSpace=wrap;rounded=1;arcSize=12;size=0.23;" vertex="1" parent="1">
          <mxGeometry x="-4" y="1090" width="140" height="60" as="geometry" />
        </mxCell>
        <mxCell id="UuXWq8jdKjsKphEEJ5_x-40" value="" style="edgeStyle=orthogonalEdgeStyle;rounded=0;orthogonalLoop=1;jettySize=auto;html=1;" edge="1" parent="1" source="UuXWq8jdKjsKphEEJ5_x-41" target="UuXWq8jdKjsKphEEJ5_x-43">
          <mxGeometry relative="1" as="geometry" />
        </mxCell>
        <mxCell id="UuXWq8jdKjsKphEEJ5_x-41" value="Output &quot;Data&amp;nbsp;&lt;div&gt;berhasil&lt;/div&gt;&lt;div&gt;diperbarui&quot;&lt;/div&gt;" style="shape=parallelogram;html=1;strokeWidth=2;perimeter=parallelogramPerimeter;whiteSpace=wrap;rounded=1;arcSize=12;size=0.23;" vertex="1" parent="1">
          <mxGeometry x="-10" y="1180" width="140" height="60" as="geometry" />
        </mxCell>
        <mxCell id="UuXWq8jdKjsKphEEJ5_x-42" style="edgeStyle=orthogonalEdgeStyle;rounded=0;orthogonalLoop=1;jettySize=auto;html=1;entryX=1;entryY=0.5;entryDx=0;entryDy=0;" edge="1" parent="1" source="UuXWq8jdKjsKphEEJ5_x-43" target="UuXWq8jdKjsKphEEJ5_x-44">
          <mxGeometry relative="1" as="geometry" />
        </mxCell>
        <mxCell id="UuXWq8jdKjsKphEEJ5_x-43" value="found = true" style="rounded=1;whiteSpace=wrap;html=1;absoluteArcSize=1;arcSize=14;strokeWidth=2;" vertex="1" parent="1">
          <mxGeometry y="1270" width="120" height="60" as="geometry" />
        </mxCell>
        <mxCell id="UuXWq8jdKjsKphEEJ5_x-44" value="break" style="rounded=1;whiteSpace=wrap;html=1;absoluteArcSize=1;arcSize=14;strokeWidth=2;" vertex="1" parent="1">
          <mxGeometry x="-160" y="1270" width="120" height="60" as="geometry" />
        </mxCell>
        <mxCell id="UuXWq8jdKjsKphEEJ5_x-45" value="" style="edgeStyle=orthogonalEdgeStyle;rounded=0;orthogonalLoop=1;jettySize=auto;html=1;" edge="1" parent="1" source="UuXWq8jdKjsKphEEJ5_x-46" target="UuXWq8jdKjsKphEEJ5_x-51">
          <mxGeometry relative="1" as="geometry" />
        </mxCell>
        <mxCell id="UuXWq8jdKjsKphEEJ5_x-46" value="found != true?" style="strokeWidth=2;html=1;shape=mxgraph.flowchart.decision;whiteSpace=wrap;" vertex="1" parent="1">
          <mxGeometry x="10" y="610" width="112" height="100" as="geometry" />
        </mxCell>
        <mxCell id="UuXWq8jdKjsKphEEJ5_x-47" style="edgeStyle=orthogonalEdgeStyle;rounded=0;orthogonalLoop=1;jettySize=auto;html=1;entryX=1;entryY=0.5;entryDx=0;entryDy=0;entryPerimeter=0;" edge="1" parent="1" source="UuXWq8jdKjsKphEEJ5_x-32" target="UuXWq8jdKjsKphEEJ5_x-34">
          <mxGeometry relative="1" as="geometry" />
        </mxCell>
        <mxCell id="UuXWq8jdKjsKphEEJ5_x-48" style="edgeStyle=orthogonalEdgeStyle;rounded=0;orthogonalLoop=1;jettySize=auto;html=1;entryX=0.5;entryY=0;entryDx=0;entryDy=0;entryPerimeter=0;" edge="1" parent="1" source="UuXWq8jdKjsKphEEJ5_x-34" target="UuXWq8jdKjsKphEEJ5_x-36">
          <mxGeometry relative="1" as="geometry" />
        </mxCell>
        <mxCell id="UuXWq8jdKjsKphEEJ5_x-49" style="edgeStyle=orthogonalEdgeStyle;rounded=0;orthogonalLoop=1;jettySize=auto;html=1;entryX=0.544;entryY=0.031;entryDx=0;entryDy=0;entryPerimeter=0;" edge="1" parent="1" source="UuXWq8jdKjsKphEEJ5_x-39" target="UuXWq8jdKjsKphEEJ5_x-41">
          <mxGeometry relative="1" as="geometry" />
        </mxCell>
        <mxCell id="UuXWq8jdKjsKphEEJ5_x-50" style="edgeStyle=orthogonalEdgeStyle;rounded=0;orthogonalLoop=1;jettySize=auto;html=1;entryX=0;entryY=0.5;entryDx=0;entryDy=0;entryPerimeter=0;" edge="1" parent="1" source="UuXWq8jdKjsKphEEJ5_x-51" target="UuXWq8jdKjsKphEEJ5_x-7">
          <mxGeometry relative="1" as="geometry">
            <mxPoint x="-220" y="660" as="targetPoint" />
            <Array as="points">
              <mxPoint x="-220" y="540" />
              <mxPoint x="-220" y="380" />
            </Array>
          </mxGeometry>
        </mxCell>
        <mxCell id="UuXWq8jdKjsKphEEJ5_x-51" value="Output &quot;User&amp;nbsp;&lt;div&gt;tidak ditemukan&quot;&lt;/div&gt;" style="shape=parallelogram;html=1;strokeWidth=2;perimeter=parallelogramPerimeter;whiteSpace=wrap;rounded=1;arcSize=12;size=0.23;" vertex="1" parent="1">
          <mxGeometry x="-4" y="510" width="140" height="60" as="geometry" />
        </mxCell>
        <mxCell id="UuXWq8jdKjsKphEEJ5_x-52" value="" style="edgeStyle=orthogonalEdgeStyle;rounded=0;orthogonalLoop=1;jettySize=auto;html=1;" edge="1" parent="1" source="UuXWq8jdKjsKphEEJ5_x-54" target="UuXWq8jdKjsKphEEJ5_x-56">
          <mxGeometry relative="1" as="geometry" />
        </mxCell>
        <mxCell id="UuXWq8jdKjsKphEEJ5_x-53" value="" style="edgeStyle=orthogonalEdgeStyle;rounded=0;orthogonalLoop=1;jettySize=auto;html=1;" edge="1" parent="1" source="UuXWq8jdKjsKphEEJ5_x-54" target="UuXWq8jdKjsKphEEJ5_x-70">
          <mxGeometry relative="1" as="geometry" />
        </mxCell>
        <mxCell id="UuXWq8jdKjsKphEEJ5_x-54" value="perintah ==&lt;div&gt;hapus?&lt;/div&gt;" style="strokeWidth=2;html=1;shape=mxgraph.flowchart.decision;whiteSpace=wrap;" vertex="1" parent="1">
          <mxGeometry x="364" y="1300" width="112" height="100" as="geometry" />
        </mxCell>
        <mxCell id="UuXWq8jdKjsKphEEJ5_x-55" value="" style="edgeStyle=orthogonalEdgeStyle;rounded=0;orthogonalLoop=1;jettySize=auto;html=1;" edge="1" parent="1" source="UuXWq8jdKjsKphEEJ5_x-56" target="UuXWq8jdKjsKphEEJ5_x-59">
          <mxGeometry relative="1" as="geometry" />
        </mxCell>
        <mxCell id="UuXWq8jdKjsKphEEJ5_x-56" value="Output &quot;Masukkan&amp;nbsp;&lt;div&gt;ID user: &quot;&lt;/div&gt;" style="shape=parallelogram;html=1;strokeWidth=2;perimeter=parallelogramPerimeter;whiteSpace=wrap;rounded=1;arcSize=12;size=0.23;" vertex="1" parent="1">
          <mxGeometry x="530" y="1320" width="140" height="60" as="geometry" />
        </mxCell>
        <mxCell id="UuXWq8jdKjsKphEEJ5_x-57" style="edgeStyle=orthogonalEdgeStyle;rounded=0;orthogonalLoop=1;jettySize=auto;html=1;exitX=0.5;exitY=1;exitDx=0;exitDy=0;" edge="1" parent="1" source="UuXWq8jdKjsKphEEJ5_x-56" target="UuXWq8jdKjsKphEEJ5_x-56">
          <mxGeometry relative="1" as="geometry" />
        </mxCell>
        <mxCell id="UuXWq8jdKjsKphEEJ5_x-58" value="" style="edgeStyle=orthogonalEdgeStyle;rounded=0;orthogonalLoop=1;jettySize=auto;html=1;" edge="1" parent="1" source="UuXWq8jdKjsKphEEJ5_x-59" target="UuXWq8jdKjsKphEEJ5_x-61">
          <mxGeometry relative="1" as="geometry" />
        </mxCell>
        <mxCell id="UuXWq8jdKjsKphEEJ5_x-59" value="Input id user" style="shape=parallelogram;html=1;strokeWidth=2;perimeter=parallelogramPerimeter;whiteSpace=wrap;rounded=1;arcSize=12;size=0.23;" vertex="1" parent="1">
          <mxGeometry x="530" y="1450" width="140" height="60" as="geometry" />
        </mxCell>
        <mxCell id="UuXWq8jdKjsKphEEJ5_x-60" value="" style="edgeStyle=orthogonalEdgeStyle;rounded=0;orthogonalLoop=1;jettySize=auto;html=1;" edge="1" parent="1" source="UuXWq8jdKjsKphEEJ5_x-61" target="UuXWq8jdKjsKphEEJ5_x-64">
          <mxGeometry relative="1" as="geometry" />
        </mxCell>
        <mxCell id="UuXWq8jdKjsKphEEJ5_x-61" value="boolean removed =&amp;nbsp;&lt;div&gt;daftarUser.removedif&lt;/div&gt;&lt;div&gt;(user.id == id user)&lt;/div&gt;" style="rounded=1;whiteSpace=wrap;html=1;absoluteArcSize=1;arcSize=14;strokeWidth=2;" vertex="1" parent="1">
          <mxGeometry x="540" y="1550" width="120" height="60" as="geometry" />
        </mxCell>
        <mxCell id="UuXWq8jdKjsKphEEJ5_x-62" style="edgeStyle=orthogonalEdgeStyle;rounded=0;orthogonalLoop=1;jettySize=auto;html=1;" edge="1" parent="1" source="UuXWq8jdKjsKphEEJ5_x-64" target="UuXWq8jdKjsKphEEJ5_x-66">
          <mxGeometry relative="1" as="geometry" />
        </mxCell>
        <mxCell id="UuXWq8jdKjsKphEEJ5_x-63" style="edgeStyle=orthogonalEdgeStyle;rounded=0;orthogonalLoop=1;jettySize=auto;html=1;" edge="1" parent="1" source="UuXWq8jdKjsKphEEJ5_x-64" target="UuXWq8jdKjsKphEEJ5_x-68">
          <mxGeometry relative="1" as="geometry" />
        </mxCell>
        <mxCell id="UuXWq8jdKjsKphEEJ5_x-64" value="removed ==&lt;div&gt;true?&lt;/div&gt;" style="strokeWidth=2;html=1;shape=mxgraph.flowchart.decision;whiteSpace=wrap;" vertex="1" parent="1">
          <mxGeometry x="544" y="1640" width="112" height="100" as="geometry" />
        </mxCell>
        <mxCell id="UuXWq8jdKjsKphEEJ5_x-65" style="edgeStyle=orthogonalEdgeStyle;rounded=0;orthogonalLoop=1;jettySize=auto;html=1;" edge="1" parent="1" source="UuXWq8jdKjsKphEEJ5_x-66">
          <mxGeometry relative="1" as="geometry">
            <mxPoint x="760" y="1910" as="targetPoint" />
          </mxGeometry>
        </mxCell>
        <mxCell id="UuXWq8jdKjsKphEEJ5_x-66" value="Output &quot;User&lt;div&gt;berhasil dihapus&quot;&lt;/div&gt;" style="shape=parallelogram;html=1;strokeWidth=2;perimeter=parallelogramPerimeter;whiteSpace=wrap;rounded=1;arcSize=12;size=0.23;" vertex="1" parent="1">
          <mxGeometry x="690" y="1660" width="140" height="60" as="geometry" />
        </mxCell>
        <mxCell id="UuXWq8jdKjsKphEEJ5_x-67" style="edgeStyle=orthogonalEdgeStyle;rounded=0;orthogonalLoop=1;jettySize=auto;html=1;" edge="1" parent="1" source="UuXWq8jdKjsKphEEJ5_x-68">
          <mxGeometry relative="1" as="geometry">
            <mxPoint x="600" y="1910" as="targetPoint" />
          </mxGeometry>
        </mxCell>
        <mxCell id="UuXWq8jdKjsKphEEJ5_x-68" value="Output &quot;User&lt;div&gt;tidak ditemukan&quot;&lt;/div&gt;" style="shape=parallelogram;html=1;strokeWidth=2;perimeter=parallelogramPerimeter;whiteSpace=wrap;rounded=1;arcSize=12;size=0.23;" vertex="1" parent="1">
          <mxGeometry x="530" y="1790" width="140" height="60" as="geometry" />
        </mxCell>
        <mxCell id="UuXWq8jdKjsKphEEJ5_x-69" value="" style="edgeStyle=orthogonalEdgeStyle;rounded=0;orthogonalLoop=1;jettySize=auto;html=1;" edge="1" parent="1" source="UuXWq8jdKjsKphEEJ5_x-70" target="UuXWq8jdKjsKphEEJ5_x-72">
          <mxGeometry relative="1" as="geometry" />
        </mxCell>
        <mxCell id="UuXWq8jdKjsKphEEJ5_x-70" value="perintah ==&lt;div&gt;tampil?&lt;/div&gt;" style="strokeWidth=2;html=1;shape=mxgraph.flowchart.decision;whiteSpace=wrap;" vertex="1" parent="1">
          <mxGeometry x="364.5" y="1480" width="112" height="100" as="geometry" />
        </mxCell>
        <mxCell id="UuXWq8jdKjsKphEEJ5_x-71" style="edgeStyle=orthogonalEdgeStyle;rounded=0;orthogonalLoop=1;jettySize=auto;html=1;entryX=0.5;entryY=1;entryDx=0;entryDy=0;" edge="1" parent="1" source="UuXWq8jdKjsKphEEJ5_x-72" target="UuXWq8jdKjsKphEEJ5_x-73">
          <mxGeometry relative="1" as="geometry" />
        </mxCell>
        <mxCell id="UuXWq8jdKjsKphEEJ5_x-72" value="daftarUser ==&lt;div&gt;kosong?&lt;/div&gt;" style="strokeWidth=2;html=1;shape=mxgraph.flowchart.decision;whiteSpace=wrap;" vertex="1" parent="1">
          <mxGeometry x="200" y="1480" width="112" height="100" as="geometry" />
        </mxCell>
        <mxCell id="UuXWq8jdKjsKphEEJ5_x-73" value="Output &quot;Belum&lt;div&gt;&lt;span style=&quot;background-color: transparent; color: light-dark(rgb(0, 0, 0), rgb(255, 255, 255));&quot;&gt;ada user&lt;/span&gt;&lt;/div&gt;&lt;div&gt;&lt;span style=&quot;background-color: transparent; color: light-dark(rgb(0, 0, 0), rgb(255, 255, 255));&quot;&gt;terdaftar &quot;&lt;/span&gt;&lt;/div&gt;" style="shape=parallelogram;html=1;strokeWidth=2;perimeter=parallelogramPerimeter;whiteSpace=wrap;rounded=1;arcSize=12;size=0.23;" vertex="1" parent="1">
          <mxGeometry x="186" y="1360" width="140" height="60" as="geometry" />
        </mxCell>
        <mxCell id="UuXWq8jdKjsKphEEJ5_x-74" style="edgeStyle=orthogonalEdgeStyle;rounded=0;orthogonalLoop=1;jettySize=auto;html=1;" edge="1" parent="1" source="UuXWq8jdKjsKphEEJ5_x-76" target="UuXWq8jdKjsKphEEJ5_x-78">
          <mxGeometry relative="1" as="geometry" />
        </mxCell>
        <mxCell id="UuXWq8jdKjsKphEEJ5_x-75" style="edgeStyle=orthogonalEdgeStyle;rounded=0;orthogonalLoop=1;jettySize=auto;html=1;exitX=0.5;exitY=1;exitDx=0;exitDy=0;exitPerimeter=0;entryX=0;entryY=0.5;entryDx=0;entryDy=0;entryPerimeter=0;" edge="1" parent="1" source="UuXWq8jdKjsKphEEJ5_x-76" target="UuXWq8jdKjsKphEEJ5_x-7">
          <mxGeometry relative="1" as="geometry">
            <mxPoint x="-220" y="1510" as="targetPoint" />
            <Array as="points">
              <mxPoint x="96" y="1620" />
              <mxPoint x="-220" y="1620" />
              <mxPoint x="-220" y="380" />
            </Array>
          </mxGeometry>
        </mxCell>
        <mxCell id="UuXWq8jdKjsKphEEJ5_x-76" value="User ada di&lt;div&gt;daftar user?&lt;/div&gt;" style="strokeWidth=2;html=1;shape=mxgraph.flowchart.decision;whiteSpace=wrap;" vertex="1" parent="1">
          <mxGeometry x="40" y="1480" width="112" height="100" as="geometry" />
        </mxCell>
        <mxCell id="UuXWq8jdKjsKphEEJ5_x-77" style="edgeStyle=orthogonalEdgeStyle;rounded=0;orthogonalLoop=1;jettySize=auto;html=1;entryX=1;entryY=0.5;entryDx=0;entryDy=0;entryPerimeter=0;" edge="1" parent="1" source="UuXWq8jdKjsKphEEJ5_x-72" target="UuXWq8jdKjsKphEEJ5_x-76">
          <mxGeometry relative="1" as="geometry" />
        </mxCell>
        <mxCell id="UuXWq8jdKjsKphEEJ5_x-78" value="Output user" style="shape=parallelogram;html=1;strokeWidth=2;perimeter=parallelogramPerimeter;whiteSpace=wrap;rounded=1;arcSize=12;size=0.23;" vertex="1" parent="1">
          <mxGeometry x="-130" y="1500" width="140" height="60" as="geometry" />
        </mxCell>
        <mxCell id="UuXWq8jdKjsKphEEJ5_x-79" style="edgeStyle=orthogonalEdgeStyle;rounded=0;orthogonalLoop=1;jettySize=auto;html=1;" edge="1" parent="1" source="UuXWq8jdKjsKphEEJ5_x-81" target="UuXWq8jdKjsKphEEJ5_x-83">
          <mxGeometry relative="1" as="geometry" />
        </mxCell>
        <mxCell id="UuXWq8jdKjsKphEEJ5_x-80" style="edgeStyle=orthogonalEdgeStyle;rounded=0;orthogonalLoop=1;jettySize=auto;html=1;entryX=0.5;entryY=0;entryDx=0;entryDy=0;" edge="1" parent="1" source="UuXWq8jdKjsKphEEJ5_x-81" target="UuXWq8jdKjsKphEEJ5_x-87">
          <mxGeometry relative="1" as="geometry" />
        </mxCell>
        <mxCell id="UuXWq8jdKjsKphEEJ5_x-81" value="perintah ==&lt;div&gt;keluar?&lt;/div&gt;" style="strokeWidth=2;html=1;shape=mxgraph.flowchart.decision;whiteSpace=wrap;" vertex="1" parent="1">
          <mxGeometry x="364.5" y="1630" width="112" height="100" as="geometry" />
        </mxCell>
        <mxCell id="UuXWq8jdKjsKphEEJ5_x-82" style="edgeStyle=orthogonalEdgeStyle;rounded=0;orthogonalLoop=1;jettySize=auto;html=1;" edge="1" parent="1" source="UuXWq8jdKjsKphEEJ5_x-83" target="UuXWq8jdKjsKphEEJ5_x-84">
          <mxGeometry relative="1" as="geometry">
            <Array as="points">
              <mxPoint x="260" y="1990" />
            </Array>
          </mxGeometry>
        </mxCell>
        <mxCell id="UuXWq8jdKjsKphEEJ5_x-83" value="next = false" style="rounded=1;whiteSpace=wrap;html=1;absoluteArcSize=1;arcSize=14;strokeWidth=2;" vertex="1" parent="1">
          <mxGeometry x="200" y="1650" width="120" height="60" as="geometry" />
        </mxCell>
        <mxCell id="UuXWq8jdKjsKphEEJ5_x-84" value="Output &quot;Program&lt;div&gt;&lt;span style=&quot;background-color: transparent; color: light-dark(rgb(0, 0, 0), rgb(255, 255, 255));&quot;&gt;selesai&quot;&lt;/span&gt;&lt;/div&gt;" style="shape=parallelogram;html=1;strokeWidth=2;perimeter=parallelogramPerimeter;whiteSpace=wrap;rounded=1;arcSize=12;size=0.23;" vertex="1" parent="1">
          <mxGeometry x="690" y="1960" width="140" height="60" as="geometry" />
        </mxCell>
        <mxCell id="UuXWq8jdKjsKphEEJ5_x-85" style="edgeStyle=orthogonalEdgeStyle;rounded=0;orthogonalLoop=1;jettySize=auto;html=1;entryX=0.5;entryY=0;entryDx=0;entryDy=0;entryPerimeter=0;" edge="1" parent="1" source="UuXWq8jdKjsKphEEJ5_x-70" target="UuXWq8jdKjsKphEEJ5_x-81">
          <mxGeometry relative="1" as="geometry" />
        </mxCell>
        <mxCell id="UuXWq8jdKjsKphEEJ5_x-86" style="edgeStyle=orthogonalEdgeStyle;rounded=0;orthogonalLoop=1;jettySize=auto;html=1;" edge="1" parent="1" source="UuXWq8jdKjsKphEEJ5_x-87">
          <mxGeometry relative="1" as="geometry">
            <mxPoint x="420.5" y="1910" as="targetPoint" />
          </mxGeometry>
        </mxCell>
        <mxCell id="UuXWq8jdKjsKphEEJ5_x-87" value="Output &quot;Perintah&lt;div&gt;&lt;span style=&quot;background-color: transparent; color: light-dark(rgb(0, 0, 0), rgb(255, 255, 255));&quot;&gt;tidak valid&quot;&lt;/span&gt;&lt;/div&gt;" style="shape=parallelogram;html=1;strokeWidth=2;perimeter=parallelogramPerimeter;whiteSpace=wrap;rounded=1;arcSize=12;size=0.23;" vertex="1" parent="1">
          <mxGeometry x="350.5" y="1785" width="140" height="60" as="geometry" />
        </mxCell>
        <mxCell id="UuXWq8jdKjsKphEEJ5_x-88" value="End" style="strokeWidth=2;html=1;shape=mxgraph.flowchart.terminator;whiteSpace=wrap;strokeColor=default;" vertex="1" parent="1">
          <mxGeometry x="555" y="355" width="105" height="50" as="geometry" />
        </mxCell>
        <mxCell id="UuXWq8jdKjsKphEEJ5_x-89" style="edgeStyle=orthogonalEdgeStyle;rounded=0;orthogonalLoop=1;jettySize=auto;html=1;entryX=0.5;entryY=0;entryDx=0;entryDy=0;entryPerimeter=0;" edge="1" parent="1" source="UuXWq8jdKjsKphEEJ5_x-13" target="UuXWq8jdKjsKphEEJ5_x-12">
          <mxGeometry relative="1" as="geometry" />
        </mxCell>
        <mxCell id="UuXWq8jdKjsKphEEJ5_x-90" style="edgeStyle=orthogonalEdgeStyle;rounded=0;orthogonalLoop=1;jettySize=auto;html=1;entryX=0.5;entryY=0;entryDx=0;entryDy=0;entryPerimeter=0;" edge="1" parent="1" source="UuXWq8jdKjsKphEEJ5_x-5" target="UuXWq8jdKjsKphEEJ5_x-7">
          <mxGeometry relative="1" as="geometry" />
        </mxCell>
        <mxCell id="UuXWq8jdKjsKphEEJ5_x-91" style="edgeStyle=orthogonalEdgeStyle;rounded=0;orthogonalLoop=1;jettySize=auto;html=1;entryX=1;entryY=0.5;entryDx=0;entryDy=0;entryPerimeter=0;" edge="1" parent="1" source="UuXWq8jdKjsKphEEJ5_x-84" target="UuXWq8jdKjsKphEEJ5_x-88">
          <mxGeometry relative="1" as="geometry">
            <Array as="points">
              <mxPoint x="910" y="1990" />
              <mxPoint x="910" y="380" />
            </Array>
          </mxGeometry>
        </mxCell>
        <mxCell id="UuXWq8jdKjsKphEEJ5_x-92" style="edgeStyle=orthogonalEdgeStyle;rounded=0;orthogonalLoop=1;jettySize=auto;html=1;entryX=0;entryY=0.5;entryDx=0;entryDy=0;entryPerimeter=0;" edge="1" parent="1" source="UuXWq8jdKjsKphEEJ5_x-7" target="UuXWq8jdKjsKphEEJ5_x-88">
          <mxGeometry relative="1" as="geometry" />
        </mxCell>
        <mxCell id="UuXWq8jdKjsKphEEJ5_x-93" style="edgeStyle=orthogonalEdgeStyle;rounded=0;orthogonalLoop=1;jettySize=auto;html=1;entryX=0;entryY=0.5;entryDx=0;entryDy=0;entryPerimeter=0;exitX=1;exitY=0.5;exitDx=0;exitDy=0;" edge="1" parent="1" source="UuXWq8jdKjsKphEEJ5_x-24" target="UuXWq8jdKjsKphEEJ5_x-7">
          <mxGeometry relative="1" as="geometry">
            <mxPoint x="713.8999999999996" y="1200" as="sourcePoint" />
            <mxPoint x="424" y="380" as="targetPoint" />
            <Array as="points">
              <mxPoint x="870" y="1200" />
              <mxPoint x="870" y="1910" />
              <mxPoint x="-220" y="1910" />
              <mxPoint x="-220" y="380" />
            </Array>
          </mxGeometry>
        </mxCell>
        <mxCell id="UuXWq8jdKjsKphEEJ5_x-94" value="Y" style="text;html=1;align=center;verticalAlign=middle;whiteSpace=wrap;rounded=0;" vertex="1" parent="1">
          <mxGeometry x="390" y="430" width="20" height="20" as="geometry" />
        </mxCell>
        <mxCell id="UuXWq8jdKjsKphEEJ5_x-95" value="N" style="text;html=1;align=center;verticalAlign=middle;whiteSpace=wrap;rounded=0;" vertex="1" parent="1">
          <mxGeometry x="476.5" y="355" width="20" height="20" as="geometry" />
        </mxCell>
        <mxCell id="UuXWq8jdKjsKphEEJ5_x-96" value="Y" style="text;html=1;align=center;verticalAlign=middle;whiteSpace=wrap;rounded=0;" vertex="1" parent="1">
          <mxGeometry x="480.5" y="680" width="20" height="20" as="geometry" />
        </mxCell>
        <mxCell id="UuXWq8jdKjsKphEEJ5_x-97" value="N" style="text;html=1;align=center;verticalAlign=middle;whiteSpace=wrap;rounded=0;" vertex="1" parent="1">
          <mxGeometry x="390" y="750" width="20" height="20" as="geometry" />
        </mxCell>
        <mxCell id="UuXWq8jdKjsKphEEJ5_x-98" value="Y" style="text;html=1;align=center;verticalAlign=middle;whiteSpace=wrap;rounded=0;" vertex="1" parent="1">
          <mxGeometry x="340.5" y="810" width="20" height="20" as="geometry" />
        </mxCell>
        <mxCell id="UuXWq8jdKjsKphEEJ5_x-99" value="N" style="text;html=1;align=center;verticalAlign=middle;whiteSpace=wrap;rounded=0;" vertex="1" parent="1">
          <mxGeometry x="390" y="880" width="20" height="20" as="geometry" />
        </mxCell>
        <mxCell id="UuXWq8jdKjsKphEEJ5_x-100" value="Y" style="text;html=1;align=center;verticalAlign=middle;whiteSpace=wrap;rounded=0;" vertex="1" parent="1">
          <mxGeometry x="476.5" y="1330" width="20" height="20" as="geometry" />
        </mxCell>
        <mxCell id="UuXWq8jdKjsKphEEJ5_x-101" value="N" style="text;html=1;align=center;verticalAlign=middle;whiteSpace=wrap;rounded=0;" vertex="1" parent="1">
          <mxGeometry x="390" y="1400" width="20" height="20" as="geometry" />
        </mxCell>
        <mxCell id="UuXWq8jdKjsKphEEJ5_x-102" value="N" style="text;html=1;align=center;verticalAlign=middle;whiteSpace=wrap;rounded=0;" vertex="1" parent="1">
          <mxGeometry x="70" y="720" width="20" height="20" as="geometry" />
        </mxCell>
        <mxCell id="UuXWq8jdKjsKphEEJ5_x-103" value="N" style="text;html=1;align=center;verticalAlign=middle;whiteSpace=wrap;rounded=0;" vertex="1" parent="1">
          <mxGeometry x="122" y="890" width="20" height="20" as="geometry" />
        </mxCell>
        <mxCell id="UuXWq8jdKjsKphEEJ5_x-104" value="Y" style="text;html=1;align=center;verticalAlign=middle;whiteSpace=wrap;rounded=0;" vertex="1" parent="1">
          <mxGeometry x="40" y="970" width="20" height="20" as="geometry" />
        </mxCell>
        <mxCell id="UuXWq8jdKjsKphEEJ5_x-105" value="Y" style="text;html=1;align=center;verticalAlign=middle;whiteSpace=wrap;rounded=0;" vertex="1" parent="1">
          <mxGeometry x="40" y="840" width="20" height="20" as="geometry" />
        </mxCell>
        <mxCell id="UuXWq8jdKjsKphEEJ5_x-106" value="Y" style="text;html=1;align=center;verticalAlign=middle;whiteSpace=wrap;rounded=0;" vertex="1" parent="1">
          <mxGeometry x="70" y="590" width="20" height="20" as="geometry" />
        </mxCell>
        <mxCell id="UuXWq8jdKjsKphEEJ5_x-107" value="Y" style="text;html=1;align=center;verticalAlign=middle;whiteSpace=wrap;rounded=0;" vertex="1" parent="1">
          <mxGeometry x="340.5" y="1510" width="20" height="20" as="geometry" />
        </mxCell>
        <mxCell id="UuXWq8jdKjsKphEEJ5_x-108" value="N" style="text;html=1;align=center;verticalAlign=middle;whiteSpace=wrap;rounded=0;" vertex="1" parent="1">
          <mxGeometry x="430" y="1580" width="20" height="20" as="geometry" />
        </mxCell>
        <mxCell id="UuXWq8jdKjsKphEEJ5_x-109" value="Y" style="text;html=1;align=center;verticalAlign=middle;whiteSpace=wrap;rounded=0;" vertex="1" parent="1">
          <mxGeometry x="230" y="1460" width="20" height="20" as="geometry" />
        </mxCell>
        <mxCell id="UuXWq8jdKjsKphEEJ5_x-110" value="N" style="text;html=1;align=center;verticalAlign=middle;whiteSpace=wrap;rounded=0;" vertex="1" parent="1">
          <mxGeometry x="186" y="1540" width="20" height="20" as="geometry" />
        </mxCell>
        <mxCell id="UuXWq8jdKjsKphEEJ5_x-111" value="Y" style="text;html=1;align=center;verticalAlign=middle;whiteSpace=wrap;rounded=0;" vertex="1" parent="1">
          <mxGeometry x="13" y="1510" width="20" height="20" as="geometry" />
        </mxCell>
        <mxCell id="UuXWq8jdKjsKphEEJ5_x-112" style="edgeStyle=orthogonalEdgeStyle;rounded=0;orthogonalLoop=1;jettySize=auto;html=1;entryX=0.5;entryY=0;entryDx=0;entryDy=0;entryPerimeter=0;" edge="1" parent="1" source="UuXWq8jdKjsKphEEJ5_x-78" target="UuXWq8jdKjsKphEEJ5_x-76">
          <mxGeometry relative="1" as="geometry">
            <Array as="points">
              <mxPoint x="-60" y="1420" />
              <mxPoint x="96" y="1420" />
            </Array>
          </mxGeometry>
        </mxCell>
        <mxCell id="UuXWq8jdKjsKphEEJ5_x-113" value="N" style="text;html=1;align=center;verticalAlign=middle;whiteSpace=wrap;rounded=0;" vertex="1" parent="1">
          <mxGeometry x="430" y="1730" width="20" height="20" as="geometry" />
        </mxCell>
        <mxCell id="UuXWq8jdKjsKphEEJ5_x-114" value="Y" style="text;html=1;align=center;verticalAlign=middle;whiteSpace=wrap;rounded=0;" vertex="1" parent="1">
          <mxGeometry x="340.5" y="1660" width="20" height="20" as="geometry" />
        </mxCell>
        <mxCell id="UuXWq8jdKjsKphEEJ5_x-115" value="N" style="text;html=1;align=center;verticalAlign=middle;whiteSpace=wrap;rounded=0;" vertex="1" parent="1">
          <mxGeometry x="570" y="1740" width="20" height="20" as="geometry" />
        </mxCell>
        <mxCell id="UuXWq8jdKjsKphEEJ5_x-116" value="Y" style="text;html=1;align=center;verticalAlign=middle;whiteSpace=wrap;rounded=0;" vertex="1" parent="1">
          <mxGeometry x="660" y="1670" width="20" height="20" as="geometry" />
        </mxCell>
        <mxCell id="UuXWq8jdKjsKphEEJ5_x-117" value="N" style="text;html=1;align=center;verticalAlign=middle;whiteSpace=wrap;rounded=0;" vertex="1" parent="1">
          <mxGeometry x="-20" y="640" width="20" height="20" as="geometry" />
        </mxCell>
        <mxCell id="UuXWq8jdKjsKphEEJ5_x-118" value="N" style="text;html=1;align=center;verticalAlign=middle;whiteSpace=wrap;rounded=0;" vertex="1" parent="1">
          <mxGeometry x="70" y="1580" width="20" height="20" as="geometry" />
        </mxCell>
        <mxCell id="UuXWq8jdKjsKphEEJ5_x-119" style="edgeStyle=orthogonalEdgeStyle;rounded=0;orthogonalLoop=1;jettySize=auto;html=1;entryX=0;entryY=0.5;entryDx=0;entryDy=0;entryPerimeter=0;" edge="1" parent="1" source="UuXWq8jdKjsKphEEJ5_x-73" target="UuXWq8jdKjsKphEEJ5_x-7">
          <mxGeometry relative="1" as="geometry">
            <Array as="points">
              <mxPoint x="-220" y="1390" />
              <mxPoint x="-220" y="380" />
            </Array>
          </mxGeometry>
        </mxCell>
        <mxCell id="UuXWq8jdKjsKphEEJ5_x-120" style="edgeStyle=orthogonalEdgeStyle;rounded=0;orthogonalLoop=1;jettySize=auto;html=1;entryX=1;entryY=0.5;entryDx=0;entryDy=0;entryPerimeter=0;" edge="1" parent="1" source="UuXWq8jdKjsKphEEJ5_x-36" target="UuXWq8jdKjsKphEEJ5_x-34">
          <mxGeometry relative="1" as="geometry">
            <Array as="points">
              <mxPoint x="150" y="920.0000000000002" />
              <mxPoint x="150" y="790" />
            </Array>
          </mxGeometry>
        </mxCell>
        <mxCell id="UuXWq8jdKjsKphEEJ5_x-121" style="edgeStyle=orthogonalEdgeStyle;rounded=0;orthogonalLoop=1;jettySize=auto;html=1;entryX=0;entryY=0.5;entryDx=0;entryDy=0;entryPerimeter=0;" edge="1" parent="1" source="UuXWq8jdKjsKphEEJ5_x-46" target="UuXWq8jdKjsKphEEJ5_x-34">
          <mxGeometry relative="1" as="geometry">
            <Array as="points">
              <mxPoint x="-100" y="660" />
              <mxPoint x="-100" y="790" />
            </Array>
          </mxGeometry>
        </mxCell>
        <mxCell id="UuXWq8jdKjsKphEEJ5_x-122" style="edgeStyle=orthogonalEdgeStyle;rounded=0;orthogonalLoop=1;jettySize=auto;html=1;entryX=0;entryY=0.5;entryDx=0;entryDy=0;entryPerimeter=0;" edge="1" parent="1" source="UuXWq8jdKjsKphEEJ5_x-44" target="UuXWq8jdKjsKphEEJ5_x-34">
          <mxGeometry relative="1" as="geometry">
            <Array as="points">
              <mxPoint x="-100" y="790" />
            </Array>
          </mxGeometry>
        </mxCell>
      </root>
    </mxGraphModel>
  </diagram>
</mxfile>
